<svg width="26" height="20" viewBox="0 0 26 20" fill="none" xmlns="http://www.w3.org/2000/svg">
<path fill-rule="evenodd" clip-rule="evenodd" d="M1.08668 9.3373C0.911112 9.51308 0.8125 9.75136 0.8125 9.9998C0.8125 10.2482 0.911112 10.4865 1.08668 10.6623L9.82043 19.4123C9.90687 19.5019 10.0103 19.5734 10.1246 19.6225C10.239 19.6717 10.362 19.6976 10.4865 19.6988C10.611 19.6999 10.7344 19.6763 10.8497 19.6292C10.9649 19.5821 11.0696 19.5125 11.1577 19.4245C11.2457 19.3366 11.3154 19.2319 11.3626 19.1167C11.4098 19.0015 11.4336 18.8781 11.4325 18.7536C11.4315 18.6291 11.4057 18.5061 11.3566 18.3917C11.3075 18.2773 11.2362 18.1738 11.1467 18.0873L4.01168 10.9386L24.2492 10.9523C24.4978 10.9526 24.7364 10.8542 24.9125 10.6786C25.0885 10.503 25.1876 10.2647 25.1879 10.0161C25.1883 9.76741 25.0898 9.52882 24.9142 9.35277C24.7386 9.17672 24.5003 9.07763 24.2517 9.0773L4.00918 9.0648L11.1479 1.9123C11.2374 1.82578 11.3088 1.7223 11.3579 1.6079C11.407 1.49349 11.4328 1.37046 11.4338 1.24598C11.4348 1.1215 11.411 0.998064 11.3638 0.882871C11.3166 0.767679 11.247 0.663038 11.1589 0.575056C11.0708 0.487073 10.9661 0.41751 10.8509 0.370426C10.7357 0.323342 10.6122 0.29968 10.4877 0.30082C10.3632 0.30196 10.2402 0.32788 10.1259 0.377066C10.0115 0.426253 9.90811 0.497721 9.82168 0.587302L1.08668 9.3373Z" fill="black"/>
</svg>
